<svg width="800" height="800" viewBox="0 0 800 800" fill="none" xmlns="http://www.w3.org/2000/svg">
<g clip-path="url(#clip0_2225_3044)">
<path fill-rule="evenodd" clip-rule="evenodd" d="M640 190V235V500C640 502.761 637.761 505 635 505H545C542.239 505 540 502.761 540 500V345V306.609V187.5C540 186.119 541.119 185 542.5 185H590H635C637.761 185 640 187.239 640 190ZM520 328.485C520 329.665 519.583 330.807 518.821 331.709L438.215 427.244L418.821 450.228C415.816 453.791 410 451.665 410 447.004V307.441C410 306.261 410.417 305.118 411.179 304.216L496.785 202.756L510.269 186.776C511.219 185.65 512.617 185 514.091 185H515C517.761 185 520 187.239 520 190V328.485ZM390 447.004C390 451.665 384.184 453.791 381.179 450.228L361.785 427.244L281.179 331.709C280.417 330.807 280 329.665 280 328.485V190C280 187.239 282.239 185 285 185H285.909C287.383 185 288.781 185.65 289.731 186.776L303.215 202.756L388.821 304.216C389.583 305.118 390 306.261 390 307.441V447.004ZM260 306.609V345V530C260 532.761 257.761 535 255 535H165C162.239 535 160 532.761 160 530V235V190C160 187.239 162.239 185 165 185H210H257.5C258.881 185 260 186.119 260 187.5V306.609ZM542.369 532.5L585.67 607.5C587.594 610.833 592.406 610.833 594.33 607.5L637.631 532.5C639.556 529.167 637.15 525 633.301 525H546.699C542.85 525 540.444 529.167 542.369 532.5Z" fill="url(#paint0_linear_2225_3044)"/>
<path d="M160 570C160 567.239 162.239 565 165 565H507.901C509.677 565 511.32 565.943 512.217 567.477L535.602 607.477C537.55 610.81 535.146 615 531.285 615H165C162.239 615 160 612.761 160 610V570Z" fill="url(#paint1_linear_2225_3044)"/>
</g>
<defs>
<linearGradient id="paint0_linear_2225_3044" x1="160" y1="185" x2="640" y2="610" gradientUnits="userSpaceOnUse">
<stop stop-color="#777777"/>
<stop offset="1"/>
</linearGradient>
<linearGradient id="paint1_linear_2225_3044" x1="160" y1="565" x2="536" y2="615" gradientUnits="userSpaceOnUse">
<stop stop-color="#4444CC"/>
<stop offset="1" stop-color="#4444FF"/>
</linearGradient>
<clipPath id="clip0_2225_3044">
<rect width="480" height="430" fill="white" transform="translate(160 185)"/>
</clipPath>
</defs>
</svg>
