<svg width="800" height="800" viewBox="0 0 800 800" fill="none" xmlns="http://www.w3.org/2000/svg">
<rect width="800" height="800" fill="white"/>
<g clip-path="url(#clip0_335_3032)">
<path fill-rule="evenodd" clip-rule="evenodd" d="M404.931 184.162C397.15 184.162 390.843 190.47 390.843 198.25V315.666H308.428C300.647 315.666 294.34 321.974 294.34 329.754V418.999V426.043H308.428V418.999V329.754H390.843V411.955C390.843 419.736 397.15 426.043 404.931 426.043H494.39H501.434V418.999V329.754C501.434 321.974 495.127 315.666 487.346 315.666H404.931V294.271H487.346C495.127 294.271 501.434 287.963 501.434 280.183V191.206V184.162H494.39H404.931ZM404.931 411.955V329.754H487.346V411.955H404.931ZM487.346 280.183H404.931V198.25H487.346V280.183ZM190.088 510.777C190.088 502.996 196.396 496.689 204.176 496.689H211.22C219.001 496.689 225.308 502.996 225.308 510.777V523.456C225.308 531.237 219.001 537.544 211.22 537.544H190.088V510.777ZM211.22 551.632H190.088V588.261V595.305H176V588.261V551.632V537.544V510.777C176 495.215 188.615 482.601 204.176 482.601H211.22C226.781 482.601 239.396 495.215 239.396 510.777V523.456C239.396 539.018 226.781 551.632 211.22 551.632ZM574.692 510.777C574.692 502.996 580.999 496.689 588.78 496.689H595.824C603.605 496.689 609.912 502.996 609.912 510.777V586.852V593.897H624V586.852V510.777C624 495.215 611.386 482.601 595.824 482.601H588.78C573.218 482.601 560.604 495.215 560.604 510.777V586.852V593.897H574.692V586.852V510.777ZM464.805 482.601H471.849H500.025C515.587 482.601 528.201 495.215 528.201 510.777V565.72C528.201 581.282 515.587 593.897 500.025 593.897H471.849H464.805V586.852V489.645V482.601ZM478.893 496.689V579.808H500.025C507.806 579.808 514.113 573.501 514.113 565.72V510.777C514.113 502.996 507.806 496.689 500.025 496.689H478.893ZM381.686 510.777C381.686 502.996 387.993 496.689 395.774 496.689H402.818C410.598 496.689 416.906 502.996 416.906 510.777V523.456C416.906 531.237 410.598 537.544 402.818 537.544H401.537H381.686V510.777ZM402.229 556.2C405.545 560.278 408.89 564.829 410.465 568.072C411.008 569.193 411.599 571.229 412.097 574.122C412.576 576.896 412.896 580.003 413.106 582.975C413.313 585.932 413.406 588.663 413.446 590.659C413.465 591.654 413.471 592.458 413.474 593.008C413.474 593.282 413.474 593.494 413.472 593.633V593.785V593.799V593.805V593.819V593.823V593.825C413.472 593.825 413.472 593.825 413.481 593.825H413.525L413.842 593.827L427.559 593.99L420.515 593.897C427.559 593.99 427.559 593.988 427.559 593.988V593.985V593.98V593.968V593.966V593.964V593.96V593.944L427.56 593.908V593.888L427.562 593.709C427.563 593.54 427.563 593.296 427.563 592.988C427.563 592.371 427.558 591.489 427.539 590.411C427.501 588.258 427.407 585.29 427.181 582.037C426.956 578.801 426.595 575.189 426.005 571.775C425.435 568.476 424.57 564.868 423.137 561.918C421.087 557.697 417.63 552.924 414.581 549.067C424.268 544.609 430.994 534.818 430.994 523.456V510.777C430.994 495.215 418.379 482.601 402.818 482.601H395.774C380.212 482.601 367.597 495.215 367.597 510.777V537.544V544.588V593.897H381.686V551.632H398.378C399.425 552.831 400.78 554.418 402.229 556.2ZM299.975 496.689C292.194 496.689 285.887 502.996 285.887 510.777V537.544H321.107V510.777C321.107 502.996 314.8 496.689 307.019 496.689H299.975ZM335.195 537.544V510.777C335.195 495.215 322.581 482.601 307.019 482.601H299.975C284.414 482.601 271.799 495.215 271.799 510.777V537.544V544.588V593.897H285.887V551.632H321.107V593.897H335.195V544.588V537.544Z" fill="#346DA0"/>
</g>
<g clip-path="url(#clip1_335_3032)">
<path fill-rule="evenodd" clip-rule="evenodd" d="M404.931 184.162C397.15 184.162 390.843 190.47 390.843 198.25V315.666H308.428C300.647 315.666 294.34 321.974 294.34 329.754V418.999V426.043H308.428V418.999V329.754H390.843V411.955C390.843 419.736 397.15 426.043 404.931 426.043H494.39H501.434V418.999V329.754C501.434 321.974 495.127 315.666 487.346 315.666H404.931V294.271H487.346C495.127 294.271 501.434 287.963 501.434 280.183V191.206V184.162H494.39H404.931ZM404.931 411.955V329.754H487.346V411.955H404.931ZM487.346 280.183H404.931V198.25H487.346V280.183ZM190.088 510.777C190.088 502.996 196.396 496.689 204.176 496.689H211.22C219.001 496.689 225.308 502.996 225.308 510.777V523.456C225.308 531.237 219.001 537.544 211.22 537.544H190.088V510.777ZM211.22 551.632H190.088V588.261V595.305H176V588.261V551.632V537.544V510.777C176 495.215 188.615 482.601 204.176 482.601H211.22C226.781 482.601 239.396 495.215 239.396 510.777V523.456C239.396 539.018 226.781 551.632 211.22 551.632ZM574.692 510.777C574.692 502.996 580.999 496.689 588.78 496.689H595.824C603.605 496.689 609.912 502.996 609.912 510.777V586.852V593.897H624V586.852V510.777C624 495.215 611.386 482.601 595.824 482.601H588.78C573.218 482.601 560.604 495.215 560.604 510.777V586.852V593.897H574.692V586.852V510.777ZM464.805 482.601H471.849H500.025C515.587 482.601 528.201 495.215 528.201 510.777V565.72C528.201 581.282 515.587 593.897 500.025 593.897H471.849H464.805V586.852V489.645V482.601ZM478.893 496.689V579.808H500.025C507.806 579.808 514.113 573.501 514.113 565.72V510.777C514.113 502.996 507.806 496.689 500.025 496.689H478.893ZM381.686 510.777C381.686 502.996 387.993 496.689 395.774 496.689H402.818C410.598 496.689 416.906 502.996 416.906 510.777V523.456C416.906 531.237 410.598 537.544 402.818 537.544H401.537H381.686V510.777ZM402.229 556.2C405.545 560.278 408.89 564.829 410.465 568.072C411.008 569.193 411.599 571.229 412.097 574.122C412.576 576.896 412.896 580.003 413.106 582.975C413.313 585.932 413.406 588.663 413.446 590.659C413.465 591.654 413.471 592.458 413.474 593.008C413.474 593.282 413.474 593.494 413.472 593.633V593.785V593.799V593.805V593.819V593.823V593.825C413.472 593.825 413.472 593.825 413.481 593.825H413.525L413.842 593.827L427.559 593.99L420.515 593.897C427.559 593.99 427.559 593.988 427.559 593.988V593.985V593.98V593.968V593.966V593.964V593.96V593.944L427.56 593.908V593.888L427.562 593.709C427.563 593.54 427.563 593.296 427.563 592.988C427.563 592.371 427.558 591.489 427.539 590.411C427.501 588.258 427.407 585.29 427.181 582.037C426.956 578.801 426.595 575.189 426.005 571.775C425.435 568.476 424.57 564.868 423.137 561.918C421.087 557.697 417.63 552.924 414.581 549.067C424.268 544.609 430.994 534.818 430.994 523.456V510.777C430.994 495.215 418.379 482.601 402.818 482.601H395.774C380.212 482.601 367.597 495.215 367.597 510.777V537.544V544.588V593.897H381.686V551.632H398.378C399.425 552.831 400.78 554.418 402.229 556.2ZM299.975 496.689C292.194 496.689 285.887 502.996 285.887 510.777V537.544H321.107V510.777C321.107 502.996 314.8 496.689 307.019 496.689H299.975ZM335.195 537.544V510.777C335.195 495.215 322.581 482.601 307.019 482.601H299.975C284.414 482.601 271.799 495.215 271.799 510.777V537.544V544.588V593.897H285.887V551.632H321.107V593.897H335.195V544.588V537.544Z" fill="#346DA0"/>
</g>
<defs>
<clipPath id="clip0_335_3032">
<rect width="448" height="411.372" fill="white" transform="translate(176 184)"/>
</clipPath>
<clipPath id="clip1_335_3032">
<rect width="448" height="411.372" fill="white" transform="translate(176 184)"/>
</clipPath>
</defs>
</svg>
